<svg width="580" height="200" viewBox="0 0 580 200" xmlns="http://www.w3.org/2000/svg" font-family="'Courier New', monospace">
  <rect x="1" y="1" width="578" height="198" rx="10" fill="#0d1117" stroke="#1f2937" stroke-width="1"/>
  <text x="16" y="20" font-size="11" fill="#6b7280">● aryank77/Netflix-frontend</text>
  <circle cx="558" cy="16" r="4" fill="#374151"/>
  <line x1="0" y1="30" x2="580" y2="30" stroke="#1f2937"/>

  <rect x="16" y="48" width="44" height="44" rx="10" fill="#ef4444"/>
  <polygon points="30,60 30,80 48,70" fill="#ffffff"/>

  <text x="72" y="66" font-size="19" font-weight="bold" fill="#f3f4f6">Netflix Clone_</text>
  <text x="72" y="85" font-size="11" fill="#9ca3af">Full-stack Netflix-style streaming UI with JWT auth,</text>
  <text x="72" y="99" font-size="11" fill="#9ca3af">TMDB API integration, and live movie search</text>

  <rect x="72" y="112" width="52" height="20" rx="10" fill="#1f2937" stroke="#7c3aed"/>
  <text x="98" y="126" font-size="10" fill="#c4b5fd" text-anchor="middle">React</text>
  <rect x="130" y="112" width="46" height="20" rx="10" fill="#1f2937" stroke="#7c3aed"/>
  <text x="153" y="126" font-size="10" fill="#c4b5fd" text-anchor="middle">Vite</text>
  <rect x="182" y="112" width="66" height="20" rx="10" fill="#1f2937" stroke="#7c3aed"/>
  <text x="215" y="126" font-size="10" fill="#c4b5fd" text-anchor="middle">MongoDB</text>

  <text x="16" y="180" font-size="11" fill="#6b7280">★ 0    updated 7d ago</text>

  <circle cx="388" cy="60" r="3" fill="#22d3ee"/>
  <text x="396" y="64" font-size="10" fill="#d1d5db">JavaScript 75%</text>
  <circle cx="388" cy="78" r="3" fill="#a78bfa"/>
  <text x="396" y="82" font-size="10" fill="#d1d5db">CSS 24%</text>
  <circle cx="388" cy="96" r="3" fill="#34d399"/>
  <text x="396" y="100" font-size="10" fill="#d1d5db">HTML 1%</text>

  <circle cx="505" cy="80" r="34" fill="none" stroke="#1f2937" stroke-width="8"/>
  <circle cx="505" cy="80" r="34" fill="none" stroke="#22d3ee" stroke-width="8"
          stroke-dasharray="160.2 213.6" stroke-linecap="round"
          transform="rotate(-90 505 80)"/>
  <circle cx="505" cy="80" r="34" fill="none" stroke="#a78bfa" stroke-width="8"
          stroke-dasharray="53.4 213.6" stroke-dashoffset="-160.2" stroke-linecap="round"
          transform="rotate(-90 505 80)"/>
  <text x="505" y="85" font-size="17" font-weight="bold" fill="#ffffff" text-anchor="middle">75%</text>
</svg>
